<svg xmlns="http://www.w3.org/2000/svg" xmlns:xlink="http://www.w3.org/1999/xlink" width="650" zoomAndPan="magnify" viewBox="0 0 487.5 149.999998" height="200" preserveAspectRatio="xMidYMid meet" version="1.0"><defs><clipPath id="2512ed572c"><path d="M 451 42 L 483.007812 42 L 483.007812 107 L 451 107 Z M 451 42 " clip-rule="nonzero"/></clipPath><clipPath id="826a138f19"><path d="M 27 87 L 62 87 L 62 149.269531 L 27 149.269531 Z M 27 87 " clip-rule="nonzero"/></clipPath><clipPath id="eb90959e83"><path d="M 0 0.078125 L 89 0.078125 L 89 119 L 0 119 Z M 0 0.078125 " clip-rule="nonzero"/></clipPath></defs><path fill="#2f1b3c" d="M 146.878906 37.246094 L 123.164062 105.988281 L 138.730469 105.988281 L 143.820312 90.277344 L 168.625 90.277344 L 173.71875 105.988281 L 189.285156 105.988281 L 165.570312 37.246094 Z M 147.460938 79 L 155.898438 52.960938 L 156.40625 52.960938 L 164.84375 79 Z M 147.460938 79 " fill-opacity="1" fill-rule="nonzero"/><path fill="#2f1b3c" d="M 204.488281 33.320312 C 202.378906 33.320312 200.558594 34.046875 199.03125 35.429688 C 197.503906 36.882812 196.777344 38.558594 196.777344 40.519531 C 196.777344 42.484375 197.503906 44.230469 199.03125 45.613281 C 200.558594 46.996094 202.378906 47.722656 204.488281 47.722656 C 206.597656 47.722656 208.414062 46.996094 209.941406 45.613281 C 211.46875 44.15625 212.199219 42.484375 212.199219 40.519531 C 212.199219 38.558594 211.46875 36.8125 209.941406 35.429688 C 208.414062 34.046875 206.597656 33.320312 204.488281 33.320312 Z M 204.488281 33.320312 " fill-opacity="1" fill-rule="nonzero"/><path fill="#2f1b3c" d="M 211.617188 54.414062 L 197.285156 54.414062 L 197.285156 105.988281 L 211.617188 105.988281 Z M 211.617188 54.414062 " fill-opacity="1" fill-rule="nonzero"/><path fill="#2f1b3c" d="M 268.570312 72.527344 C 266.316406 71.144531 263.84375 70.417969 261.226562 70.273438 L 261.226562 69.617188 C 263.625 69.109375 265.734375 68.164062 267.625 66.851562 C 269.515625 65.542969 270.972656 63.945312 272.0625 61.90625 C 273.152344 59.871094 273.664062 57.542969 273.664062 54.851562 C 273.664062 51.433594 272.789062 48.378906 271.117188 45.6875 C 269.445312 43.066406 266.898438 40.957031 263.480469 39.429688 C 260.132812 37.902344 255.914062 37.175781 250.824219 37.175781 L 223.253906 37.175781 L 223.253906 105.914062 L 252.640625 105.914062 C 257.804688 105.914062 262.097656 105.113281 265.660156 103.441406 C 269.152344 101.769531 271.84375 99.511719 273.664062 96.675781 C 275.480469 93.839844 276.355469 90.566406 276.355469 86.929688 C 276.355469 83.511719 275.628906 80.601562 274.171875 78.199219 C 272.71875 75.800781 270.898438 73.910156 268.570312 72.527344 Z M 248.859375 48.960938 C 252.058594 48.960938 254.605469 49.757812 256.351562 51.214844 C 258.097656 52.742188 258.96875 54.707031 258.96875 57.25 C 258.96875 59.070312 258.535156 60.597656 257.585938 61.90625 C 256.640625 63.214844 255.476562 64.234375 253.878906 64.890625 C 252.351562 65.617188 250.53125 65.90625 248.566406 65.90625 L 237.800781 65.90625 L 237.800781 48.960938 Z M 258.535156 91.804688 C 256.640625 93.332031 253.734375 94.128906 249.660156 94.128906 L 237.800781 94.128906 L 237.800781 75.871094 L 250.023438 75.871094 C 252.351562 75.871094 254.386719 76.308594 256.058594 77.109375 C 257.734375 77.910156 259.042969 79.074219 259.988281 80.527344 C 260.933594 81.984375 261.371094 83.65625 261.371094 85.546875 C 261.296875 88.164062 260.425781 90.203125 258.535156 91.804688 Z M 258.535156 91.804688 " fill-opacity="1" fill-rule="nonzero"/><path fill="#2f1b3c" d="M 322.328125 57.105469 C 318.542969 54.851562 314.035156 53.761719 308.796875 53.761719 C 303.558594 53.761719 299.050781 54.851562 295.265625 57.105469 C 291.484375 59.359375 288.574219 62.414062 286.464844 66.417969 C 284.429688 70.417969 283.410156 75.144531 283.410156 80.382812 C 283.410156 85.621094 284.429688 90.347656 286.464844 94.277344 C 288.503906 98.277344 291.484375 101.40625 295.265625 103.585938 C 299.050781 105.84375 303.558594 106.933594 308.796875 106.933594 C 314.035156 106.933594 318.542969 105.84375 322.328125 103.585938 C 326.109375 101.332031 329.019531 98.277344 331.128906 94.277344 C 333.164062 90.277344 334.183594 85.691406 334.183594 80.382812 C 334.183594 75.074219 333.164062 70.417969 331.128906 66.417969 C 329.089844 62.414062 326.109375 59.359375 322.328125 57.105469 Z M 318.398438 88.382812 C 317.597656 90.710938 316.363281 92.601562 314.761719 93.914062 C 313.160156 95.292969 311.199219 95.949219 308.796875 95.949219 C 306.394531 95.949219 304.359375 95.292969 302.757812 93.914062 C 301.160156 92.53125 299.921875 90.710938 299.121094 88.382812 C 298.324219 86.054688 297.886719 83.363281 297.886719 80.382812 C 297.886719 77.402344 298.324219 74.710938 299.121094 72.382812 C 299.921875 70.054688 301.160156 68.164062 302.757812 66.78125 C 304.359375 65.398438 306.394531 64.742188 308.796875 64.742188 C 311.199219 64.742188 313.160156 65.398438 314.761719 66.78125 C 316.363281 68.164062 317.527344 69.980469 318.398438 72.382812 C 319.199219 74.710938 319.636719 77.402344 319.636719 80.382812 C 319.636719 83.363281 319.199219 85.984375 318.398438 88.382812 Z M 318.398438 88.382812 " fill-opacity="1" fill-rule="nonzero"/><path fill="#2f1b3c" d="M 380.300781 57.105469 C 376.519531 54.851562 372.007812 53.761719 366.769531 53.761719 C 361.535156 53.761719 357.023438 54.851562 353.242188 57.105469 C 349.457031 59.359375 346.550781 62.414062 344.441406 66.417969 C 342.402344 70.417969 341.382812 75.144531 341.382812 80.382812 C 341.382812 85.621094 342.402344 90.347656 344.441406 94.277344 C 346.476562 98.277344 349.457031 101.40625 353.242188 103.585938 C 357.023438 105.84375 361.535156 106.933594 366.769531 106.933594 C 372.007812 106.933594 376.519531 105.84375 380.300781 103.585938 C 384.082031 101.332031 386.992188 98.277344 389.101562 94.277344 C 391.140625 90.277344 392.15625 85.691406 392.15625 80.382812 C 392.15625 75.074219 391.140625 70.417969 389.101562 66.417969 C 387.066406 62.414062 384.15625 59.359375 380.300781 57.105469 Z M 376.445312 88.382812 C 375.644531 90.710938 374.410156 92.601562 372.808594 93.914062 C 371.207031 95.292969 369.242188 95.949219 366.84375 95.949219 C 364.441406 95.949219 362.40625 95.292969 360.804688 93.914062 C 359.207031 92.53125 357.96875 90.710938 357.167969 88.382812 C 356.367188 86.054688 355.933594 83.363281 355.933594 80.382812 C 355.933594 77.402344 356.367188 74.710938 357.167969 72.382812 C 357.96875 70.054688 359.207031 68.164062 360.804688 66.78125 C 362.40625 65.398438 364.441406 64.742188 366.84375 64.742188 C 369.242188 64.742188 371.207031 65.398438 372.808594 66.78125 C 374.410156 68.164062 375.574219 69.980469 376.445312 72.382812 C 377.246094 74.710938 377.683594 77.402344 377.683594 80.382812 C 377.683594 83.363281 377.246094 85.984375 376.445312 88.382812 Z M 376.445312 88.382812 " fill-opacity="1" fill-rule="nonzero"/><path fill="#2f1b3c" d="M 430.710938 76.089844 L 421.398438 74.199219 C 419 73.691406 417.324219 72.964844 416.308594 72.164062 C 415.289062 71.363281 414.851562 70.273438 414.851562 69.035156 C 414.851562 67.507812 415.578125 66.269531 417.105469 65.324219 C 418.632812 64.378906 420.527344 63.945312 422.707031 63.945312 C 424.382812 63.945312 425.761719 64.234375 427 64.742188 C 428.164062 65.324219 429.183594 66.054688 429.910156 66.925781 C 430.636719 67.796875 431.144531 68.816406 431.363281 69.980469 L 444.457031 69.179688 C 443.804688 64.453125 441.621094 60.671875 437.910156 57.90625 C 434.128906 55.140625 429.035156 53.761719 422.488281 53.761719 C 418.050781 53.761719 414.269531 54.414062 410.925781 55.722656 C 407.652344 57.03125 405.105469 58.851562 403.285156 61.253906 C 401.46875 63.652344 400.59375 66.488281 400.59375 69.835938 C 400.59375 73.691406 401.832031 76.890625 404.230469 79.363281 C 406.707031 81.835938 410.414062 83.582031 415.433594 84.601562 L 424.382812 86.347656 C 426.636719 86.785156 428.234375 87.4375 429.328125 88.3125 C 430.417969 89.183594 430.925781 90.203125 431 91.511719 C 431 93.039062 430.199219 94.347656 428.671875 95.292969 C 427.144531 96.238281 425.179688 96.75 422.636719 96.75 C 420.089844 96.75 417.980469 96.167969 416.378906 95.148438 C 414.78125 94.128906 413.6875 92.457031 413.324219 90.421875 L 399.285156 91.148438 C 400.011719 96.09375 402.339844 99.949219 406.414062 102.785156 C 410.414062 105.625 415.871094 107.078125 422.707031 107.078125 C 427.21875 107.078125 431.144531 106.351562 434.566406 104.96875 C 437.984375 103.585938 440.746094 101.550781 442.710938 99.003906 C 444.675781 96.457031 445.695312 93.476562 445.695312 90.128906 C 445.695312 86.421875 444.457031 83.4375 441.984375 81.109375 C 439.4375 78.78125 435.730469 77.109375 430.710938 76.089844 Z M 430.710938 76.089844 " fill-opacity="1" fill-rule="nonzero"/><g clip-path="url(#2512ed572c)"><path fill="#2f1b3c" d="M 479.226562 95.003906 C 478.574219 95.148438 477.917969 95.148438 477.191406 95.148438 C 476.246094 95.148438 475.371094 95.003906 474.644531 94.710938 C 473.917969 94.421875 473.335938 93.914062 472.972656 93.183594 C 472.609375 92.457031 472.390625 91.4375 472.390625 90.128906 L 472.390625 65.179688 L 482.0625 65.179688 L 482.0625 54.414062 L 472.390625 54.414062 L 472.390625 42.046875 L 458.058594 42.046875 L 458.058594 54.414062 L 451.003906 54.414062 L 451.003906 65.179688 L 458.058594 65.179688 L 458.058594 92.019531 C 458.058594 95.441406 458.714844 98.203125 460.167969 100.386719 C 461.625 102.570312 463.589844 104.242188 466.207031 105.261719 C 468.824219 106.277344 471.808594 106.789062 475.226562 106.640625 C 477.046875 106.570312 478.644531 106.421875 479.953125 106.058594 C 481.265625 105.769531 482.28125 105.476562 483.007812 105.261719 L 480.753906 94.640625 C 480.464844 94.785156 479.882812 94.929688 479.226562 95.003906 Z M 479.226562 95.003906 " fill-opacity="1" fill-rule="nonzero"/></g><g clip-path="url(#826a138f19)"><path fill="#2f1b3c" d="M 44.242188 87.730469 C 41.332031 87.730469 38.640625 89.039062 36.820312 91.222656 C 32.382812 96.675781 27.148438 105.84375 27.148438 118.5 C 27.148438 131.15625 32.382812 140.320312 36.820312 145.777344 C 38.640625 148.03125 41.332031 149.269531 44.242188 149.269531 C 47.148438 149.269531 49.839844 147.957031 51.660156 145.777344 C 56.097656 140.320312 61.335938 131.15625 61.335938 118.5 C 61.335938 105.84375 56.097656 96.675781 51.660156 91.222656 C 49.769531 88.964844 47.078125 87.730469 44.242188 87.730469 Z M 44.242188 87.730469 " fill-opacity="1" fill-rule="nonzero"/></g><g clip-path="url(#eb90959e83)"><path fill="#2f1b3c" d="M 51.585938 3.496094 C 49.625 1.242188 46.933594 0.078125 44.167969 0.078125 C 41.402344 0.078125 38.710938 1.242188 36.820312 3.496094 C 6.851562 39.503906 1.105469 87.800781 0.015625 108.460938 C -0.277344 113.917969 4.089844 118.5 9.542969 118.5 L 11.871094 118.5 C 15.363281 118.5 18.273438 115.878906 18.636719 112.386719 C 20.019531 100.3125 25.402344 91.292969 29.910156 85.621094 C 33.402344 81.328125 38.566406 78.855469 44.167969 78.855469 C 49.769531 78.855469 54.933594 81.328125 58.425781 85.621094 C 63.007812 91.292969 68.316406 100.242188 69.773438 112.386719 C 70.207031 115.878906 73.046875 118.5 76.539062 118.5 L 78.863281 118.5 C 84.320312 118.5 88.683594 113.917969 88.394531 108.460938 C 87.304688 87.800781 81.554688 39.503906 51.585938 3.496094 Z M 55.007812 49.90625 C 55.007812 55.871094 50.132812 60.742188 44.167969 60.742188 C 38.203125 60.742188 33.328125 55.871094 33.328125 49.90625 C 33.328125 43.941406 38.203125 39.066406 44.167969 39.066406 C 50.132812 39.066406 55.007812 43.941406 55.007812 49.90625 Z M 55.007812 49.90625 " fill-opacity="1" fill-rule="nonzero"/></g></svg>