<svg xmlns="http://www.w3.org/2000/svg" xmlns:xlink="http://www.w3.org/1999/xlink" width="650" zoomAndPan="magnify" viewBox="0 0 487.5 149.999998" height="200" preserveAspectRatio="xMidYMid meet" version="1.0"><defs><clipPath id="5f7ec6872b"><path d="M 1 14 L 129 14 L 129 128.671875 L 1 128.671875 Z M 1 14 " clip-rule="nonzero"/></clipPath><clipPath id="243b531d08"><path d="M 226 12.542969 L 308 12.542969 L 308 89 L 226 89 Z M 226 12.542969 " clip-rule="nonzero"/></clipPath><clipPath id="89e82a3c1c"><path d="M 313 12.542969 L 395 12.542969 L 395 89 L 313 89 Z M 313 12.542969 " clip-rule="nonzero"/></clipPath><clipPath id="8e66ccdb95"><path d="M 459 100 L 486 100 L 486 128.671875 L 459 128.671875 Z M 459 100 " clip-rule="nonzero"/></clipPath></defs><g clip-path="url(#5f7ec6872b)"><path fill="#0b0326" d="M 90.394531 34.507812 L 89.199219 28.136719 C 89.121094 27.75 88.972656 27.398438 88.753906 27.070312 C 88.535156 26.746094 88.265625 26.472656 87.9375 26.257812 C 87.613281 26.039062 87.257812 25.890625 86.875 25.816406 C 86.488281 25.738281 86.105469 25.738281 85.71875 25.8125 L 73.292969 28.121094 C 67.492188 16.921875 59.207031 12.640625 47.425781 14.863281 C 40.796875 16.125 37.964844 21.351562 35.464844 25.945312 C 32.5625 31.289062 28.835938 37.558594 20.550781 39.050781 L 22.605469 33.761719 L 15.363281 37.890625 L 11.15625 30.691406 L 9.878906 38.984375 L 1.59375 37.792969 L 7.226562 43.929688 L 1.210938 49.554688 L 9.496094 49.039062 L 10.160156 57.335938 L 14.882812 50.464844 L 21.777344 55.128906 L 19.441406 47.097656 L 27.394531 44.609375 L 23.167969 42.949219 C 33.804688 40.746094 37.667969 34.441406 40.683594 28.78125 C 43.234375 24.15625 44.859375 21.402344 48.535156 20.703125 C 57.136719 19.042969 62.753906 21.582031 67.226562 29.265625 L 56.574219 31.289062 C 55.769531 31.441406 55.132812 31.855469 54.667969 32.53125 C 54.210938 33.214844 54.070312 33.953125 54.238281 34.753906 L 55.445312 41.125 C 54.683594 41.617188 53.933594 42.132812 53.195312 42.667969 C 52.460938 43.203125 51.742188 43.761719 51.039062 44.335938 C 50.335938 44.914062 49.648438 45.511719 48.980469 46.128906 C 48.3125 46.742188 47.660156 47.378906 47.027344 48.03125 C 46.394531 48.6875 45.78125 49.359375 45.1875 50.046875 C 44.59375 50.738281 44.019531 51.441406 43.46875 52.164062 C 42.914062 52.886719 42.382812 53.625 41.871094 54.378906 C 41.359375 55.128906 40.871094 55.898438 40.402344 56.679688 C 39.933594 57.460938 39.492188 58.253906 39.070312 59.058594 C 38.648438 59.867188 38.25 60.683594 37.875 61.511719 C 37.5 62.34375 37.148438 63.183594 36.824219 64.03125 C 36.496094 64.882812 36.195312 65.738281 35.917969 66.605469 C 35.640625 67.472656 35.386719 68.347656 35.160156 69.230469 C 34.933594 70.109375 34.730469 71 34.554688 71.890625 C 34.378906 72.785156 34.230469 73.683594 34.105469 74.582031 C 33.980469 75.484375 33.882812 76.390625 33.808594 77.296875 C 33.734375 78.207031 33.6875 79.113281 33.667969 80.023438 C 33.648438 80.933594 33.652344 81.84375 33.683594 82.753906 C 33.714844 83.664062 33.773438 84.570312 33.859375 85.476562 C 33.941406 86.382812 34.050781 87.289062 34.1875 88.1875 C 34.324219 89.089844 34.484375 89.984375 34.671875 90.875 C 34.859375 91.765625 35.070312 92.652344 35.308594 93.527344 C 35.546875 94.40625 35.808594 95.277344 36.097656 96.140625 C 36.382812 97.007812 36.695312 97.859375 37.03125 98.707031 C 37.371094 99.550781 37.730469 100.386719 38.117188 101.210938 C 38.5 102.035156 38.90625 102.851562 39.339844 103.652344 C 39.769531 104.453125 40.226562 105.242188 40.703125 106.015625 C 41.179688 106.792969 41.675781 107.550781 42.195312 108.296875 C 42.71875 109.046875 43.257812 109.777344 43.820312 110.492188 C 44.382812 111.207031 44.964844 111.90625 45.566406 112.585938 C 46.171875 113.269531 46.792969 113.933594 47.433594 114.578125 C 48.070312 115.226562 48.730469 115.851562 49.40625 116.460938 C 50.082031 117.070312 50.777344 117.660156 51.488281 118.226562 C 52.199219 118.796875 52.921875 119.34375 53.664062 119.871094 C 54.40625 120.394531 55.164062 120.902344 55.933594 121.382812 C 56.703125 121.867188 57.488281 122.328125 58.285156 122.765625 C 59.082031 123.203125 59.890625 123.617188 60.710938 124.011719 C 61.53125 124.402344 62.363281 124.769531 63.207031 125.113281 C 64.046875 125.457031 64.898438 125.777344 65.757812 126.070312 C 66.621094 126.367188 67.488281 126.636719 68.363281 126.878906 C 69.238281 127.125 70.121094 127.34375 71.007812 127.539062 C 71.898438 127.734375 72.789062 127.902344 73.6875 128.042969 C 74.585938 128.1875 75.488281 128.304688 76.394531 128.394531 C 77.296875 128.484375 78.203125 128.550781 79.113281 128.589844 C 80.019531 128.628906 80.929688 128.640625 81.839844 128.625 C 82.746094 128.613281 83.65625 128.574219 84.5625 128.507812 C 85.46875 128.441406 86.375 128.347656 87.273438 128.230469 C 88.175781 128.113281 89.074219 127.96875 89.96875 127.800781 C 90.859375 127.628906 91.75 127.4375 92.632812 127.214844 C 93.511719 126.996094 94.386719 126.75 95.257812 126.476562 C 96.125 126.207031 96.984375 125.910156 97.835938 125.589844 C 98.6875 125.269531 99.527344 124.925781 100.359375 124.558594 C 101.191406 124.1875 102.011719 123.796875 102.820312 123.378906 C 103.628906 122.964844 104.421875 122.527344 105.207031 122.0625 C 105.992188 121.601562 106.761719 121.117188 107.515625 120.613281 C 108.273438 120.105469 109.011719 119.578125 109.738281 119.03125 C 110.464844 118.480469 111.171875 117.914062 111.867188 117.324219 C 112.558594 116.734375 113.234375 116.125 113.894531 115.496094 C 114.550781 114.867188 115.191406 114.222656 115.8125 113.558594 C 116.433594 112.890625 117.035156 112.210938 117.613281 111.511719 C 118.195312 110.8125 118.757812 110.09375 119.296875 109.363281 C 119.839844 108.632812 120.359375 107.882812 120.855469 107.121094 C 121.355469 106.359375 121.828125 105.585938 122.28125 104.796875 C 122.734375 104.007812 123.167969 103.207031 123.574219 102.390625 C 123.980469 101.578125 124.363281 100.753906 124.726562 99.917969 C 125.085938 99.082031 125.421875 98.234375 125.730469 97.378906 C 126.042969 96.523438 126.328125 95.660156 126.589844 94.789062 C 126.851562 93.917969 127.089844 93.039062 127.300781 92.152344 C 127.511719 91.269531 127.699219 90.378906 127.859375 89.480469 C 128.019531 88.585938 128.152344 87.683594 128.261719 86.78125 C 128.371094 85.878906 128.453125 84.972656 128.511719 84.0625 C 128.566406 83.152344 128.597656 82.246094 128.601562 81.335938 C 128.605469 80.425781 128.585938 79.515625 128.539062 78.605469 C 128.488281 77.695312 128.414062 76.789062 128.316406 75.882812 C 128.214844 74.980469 128.089844 74.078125 127.9375 73.179688 C 127.789062 72.28125 127.609375 71.390625 127.40625 70.503906 C 127.207031 69.617188 126.976562 68.734375 126.722656 67.859375 C 126.46875 66.984375 126.191406 66.121094 125.890625 65.261719 C 125.585938 64.402344 125.257812 63.554688 124.90625 62.714844 C 124.554688 61.875 124.179688 61.046875 123.78125 60.230469 C 123.382812 59.410156 122.960938 58.605469 122.515625 57.8125 C 122.066406 57.019531 121.601562 56.238281 121.109375 55.472656 C 120.621094 54.703125 120.109375 53.953125 119.574219 53.214844 C 119.042969 52.476562 118.488281 51.757812 117.910156 51.050781 C 117.335938 50.347656 116.742188 49.65625 116.128906 48.988281 C 115.515625 48.316406 114.882812 47.664062 114.230469 47.027344 C 113.578125 46.394531 112.90625 45.777344 112.222656 45.183594 C 111.535156 44.585938 110.832031 44.007812 110.109375 43.453125 C 109.390625 42.898438 108.65625 42.363281 107.902344 41.851562 C 107.152344 41.335938 106.386719 40.84375 105.609375 40.375 C 104.828125 39.90625 104.039062 39.460938 103.234375 39.035156 C 102.429688 38.613281 101.613281 38.210938 100.785156 37.835938 C 99.957031 37.457031 99.117188 37.105469 98.269531 36.777344 C 97.421875 36.449219 96.566406 36.144531 95.703125 35.863281 C 94.835938 35.585938 93.964844 35.332031 93.082031 35.101562 C 92.203125 34.871094 91.316406 34.667969 90.425781 34.488281 Z M 87.078125 113.210938 C 86.03125 113.40625 84.972656 113.550781 83.910156 113.640625 C 82.847656 113.734375 81.78125 113.773438 80.714844 113.761719 C 79.648438 113.75 78.585938 113.683594 77.523438 113.566406 C 76.464844 113.453125 75.410156 113.285156 74.367188 113.0625 C 73.320312 112.84375 72.289062 112.574219 71.273438 112.253906 C 70.253906 111.933594 69.253906 111.5625 68.273438 111.144531 C 67.292969 110.722656 66.332031 110.257812 65.398438 109.746094 C 64.460938 109.234375 63.550781 108.675781 62.671875 108.074219 C 61.789062 107.472656 60.9375 106.828125 60.121094 106.140625 C 59.300781 105.457031 58.519531 104.734375 57.769531 103.972656 C 57.023438 103.207031 56.3125 102.410156 55.644531 101.582031 C 54.972656 100.75 54.347656 99.886719 53.761719 98.992188 C 53.175781 98.101562 52.636719 97.179688 52.140625 96.234375 C 51.644531 95.289062 51.195312 94.320312 50.792969 93.328125 C 50.394531 92.339844 50.042969 91.332031 49.738281 90.308594 C 49.4375 89.28125 49.183594 88.246094 48.984375 87.195312 C 48.910156 86.808594 48.917969 86.421875 48.996094 86.039062 C 49.078125 85.652344 49.230469 85.296875 49.453125 84.972656 C 49.675781 84.648438 49.949219 84.375 50.28125 84.160156 C 50.609375 83.945312 50.96875 83.800781 51.355469 83.730469 C 51.742188 83.65625 52.125 83.660156 52.511719 83.742188 C 52.898438 83.824219 53.25 83.976562 53.574219 84.199219 C 53.902344 84.421875 54.171875 84.695312 54.386719 85.027344 C 54.601562 85.355469 54.746094 85.714844 54.816406 86.101562 C 54.980469 86.960938 55.1875 87.808594 55.4375 88.648438 C 55.683594 89.488281 55.972656 90.3125 56.300781 91.121094 C 56.628906 91.933594 56.996094 92.726562 57.402344 93.5 C 57.808594 94.273438 58.25 95.027344 58.730469 95.757812 C 59.210938 96.488281 59.726562 97.195312 60.273438 97.875 C 60.824219 98.554688 61.402344 99.207031 62.015625 99.832031 C 62.628906 100.457031 63.269531 101.046875 63.941406 101.609375 C 64.613281 102.167969 65.308594 102.695312 66.03125 103.1875 C 66.753906 103.679688 67.496094 104.136719 68.265625 104.554688 C 69.03125 104.972656 69.816406 105.355469 70.621094 105.695312 C 71.425781 106.039062 72.242188 106.339844 73.078125 106.601562 C 73.910156 106.863281 74.753906 107.085938 75.609375 107.265625 C 76.464844 107.441406 77.328125 107.578125 78.195312 107.675781 C 79.0625 107.769531 79.933594 107.820312 80.808594 107.828125 C 81.683594 107.839844 82.554688 107.804688 83.425781 107.726562 C 84.296875 107.652344 85.160156 107.53125 86.019531 107.371094 C 86.40625 107.296875 86.792969 107.300781 87.175781 107.378906 C 87.5625 107.460938 87.917969 107.609375 88.242188 107.832031 C 88.570312 108.054688 88.839844 108.328125 89.054688 108.660156 C 89.269531 108.988281 89.417969 109.347656 89.488281 109.734375 C 89.5625 110.121094 89.558594 110.507812 89.480469 110.894531 C 89.398438 111.28125 89.25 111.636719 89.027344 111.960938 C 88.808594 112.289062 88.53125 112.558594 88.203125 112.773438 C 87.875 112.992188 87.515625 113.136719 87.128906 113.210938 Z M 87.078125 113.210938 " fill-opacity="1" fill-rule="nonzero"/></g><path fill="#fe6049" d="M 191.269531 14.300781 C 205.753906 14.300781 217.550781 20.71875 217.550781 34.605469 C 217.550781 40.097656 215.894531 45.804688 209.582031 48.707031 C 211.109375 49.527344 212.5 50.535156 213.75 51.734375 C 215.003906 52.933594 216.070312 54.277344 216.957031 55.769531 C 217.84375 57.257812 218.511719 58.84375 218.964844 60.515625 C 219.414062 62.191406 219.636719 63.894531 219.621094 65.628906 C 219.621094 81.90625 204.824219 86.765625 191.585938 86.882812 L 154.222656 86.882812 L 154.222656 14.300781 Z M 174.402344 41.972656 L 190.757812 41.972656 C 195 41.972656 197.269531 39.78125 197.269531 36.582031 C 197.269531 33.378906 195 30.875 190.957031 30.875 L 174.386719 30.875 Z M 174.402344 70.871094 L 191.769531 70.871094 C 196.9375 70.871094 199.425781 68.070312 199.425781 64.035156 C 199.425781 60.003906 196.738281 57.085938 191.769531 57.085938 L 174.402344 57.085938 Z M 174.402344 70.871094 " fill-opacity="1" fill-rule="nonzero"/><g clip-path="url(#243b531d08)"><path fill="#fe6049" d="M 266.914062 88.589844 C 243.21875 88.589844 226.664062 74.804688 226.664062 50.566406 C 226.664062 26.742188 243.234375 12.542969 266.914062 12.542969 C 290.59375 12.542969 307.164062 26.425781 307.164062 50.566406 C 307.164062 74.703125 290.707031 88.589844 266.914062 88.589844 Z M 266.914062 30.042969 C 255.214844 30.042969 247.144531 38.554688 247.144531 50.566406 C 247.144531 62.578125 255.332031 71.070312 266.914062 71.070312 C 278.910156 71.070312 286.683594 62.578125 286.683594 50.566406 C 286.683594 38.140625 278.910156 30.042969 266.914062 30.042969 Z M 266.914062 30.042969 " fill-opacity="1" fill-rule="nonzero"/></g><g clip-path="url(#89e82a3c1c)"><path fill="#fe6049" d="M 354.054688 88.589844 C 330.34375 88.589844 313.789062 74.804688 313.789062 50.566406 C 313.789062 26.742188 330.359375 12.542969 354.054688 12.542969 C 377.75 12.542969 394.304688 26.425781 394.304688 50.566406 C 394.304688 74.703125 377.851562 88.589844 354.054688 88.589844 Z M 354.054688 30.042969 C 342.355469 30.042969 334.289062 38.554688 334.289062 50.566406 C 334.289062 62.578125 342.457031 71.070312 354.054688 71.070312 C 366.050781 71.070312 373.808594 62.578125 373.808594 50.566406 C 373.808594 38.140625 366.050781 30.042969 354.054688 30.042969 Z M 354.054688 30.042969 " fill-opacity="1" fill-rule="nonzero"/></g><path fill="#fe6049" d="M 465.507812 43.632812 L 446.949219 65.628906 L 443.320312 65.628906 L 425.242188 43.730469 L 425.242188 86.863281 L 404.957031 86.863281 L 404.957031 14.300781 L 426.382812 14.300781 L 445.421875 38.851562 L 464.460938 14.300781 L 485.789062 14.300781 L 485.789062 86.832031 L 465.507812 86.832031 Z M 465.507812 43.632812 " fill-opacity="1" fill-rule="nonzero"/><path fill="#0b0326" d="M 176.640625 111.933594 L 169.78125 120.078125 L 168.4375 120.078125 L 161.808594 111.984375 L 161.808594 127.941406 L 154.222656 127.941406 L 154.222656 101.082031 L 162.15625 101.082031 L 169.214844 110.175781 L 176.257812 101.082031 L 184.164062 101.082031 L 184.164062 127.941406 L 176.640625 127.941406 Z M 176.640625 111.933594 " fill-opacity="1" fill-rule="nonzero"/><path fill="#0b0326" d="M 219.605469 123.527344 L 207.609375 123.527344 L 205.851562 127.941406 L 197.800781 127.941406 L 209.847656 101.082031 L 217.5 101.082031 L 229.5 127.941406 L 221.378906 127.941406 Z M 213.640625 108.597656 L 210.179688 117.160156 L 217.039062 117.160156 Z M 213.640625 108.597656 " fill-opacity="1" fill-rule="nonzero"/><path fill="#0b0326" d="M 267.992188 127.941406 L 259.707031 127.941406 L 253.457031 119.234375 L 250.824219 119.234375 L 250.824219 127.941406 L 243.136719 127.941406 L 243.136719 101.082031 L 256.242188 101.082031 C 263.101562 101.082031 266.664062 105.496094 266.664062 110.324219 C 266.664062 113.640625 265.523438 116.429688 261 118.417969 L 267.992188 127.476562 Z M 250.742188 107.105469 L 250.742188 113.558594 L 256.390625 113.558594 C 256.589844 113.5625 256.789062 113.542969 256.984375 113.503906 C 257.179688 113.464844 257.367188 113.402344 257.550781 113.324219 C 257.734375 113.242188 257.90625 113.144531 258.066406 113.027344 C 258.230469 112.910156 258.375 112.777344 258.511719 112.628906 C 258.644531 112.480469 258.757812 112.320312 258.859375 112.148438 C 258.957031 111.972656 259.039062 111.792969 259.097656 111.601562 C 259.15625 111.410156 259.195312 111.21875 259.214844 111.019531 C 259.234375 110.820312 259.230469 110.621094 259.207031 110.421875 C 259.246094 110.003906 259.203125 109.59375 259.070312 109.195312 C 258.941406 108.792969 258.734375 108.4375 258.453125 108.121094 C 258.175781 107.808594 257.84375 107.5625 257.460938 107.386719 C 257.082031 107.207031 256.679688 107.113281 256.257812 107.105469 Z M 250.742188 107.105469 " fill-opacity="1" fill-rule="nonzero"/><path fill="#0b0326" d="M 306.632812 101.546875 L 295.746094 114.238281 C 299.492188 118.386719 303.832031 123.230469 307.542969 127.511719 L 307.542969 127.976562 L 298.148438 127.976562 L 290.492188 119.035156 L 290.492188 127.976562 L 282.902344 127.976562 L 282.902344 101.082031 L 290.492188 101.082031 L 290.492188 109.910156 C 292.78125 107.070312 295.28125 103.917969 297.535156 101.082031 L 306.632812 101.082031 Z M 306.632812 101.546875 " fill-opacity="1" fill-rule="nonzero"/><path fill="#0b0326" d="M 342.804688 127.941406 L 321.261719 127.941406 L 321.261719 101.082031 L 342.191406 101.082031 L 342.191406 107.453125 L 328.738281 107.453125 L 328.738281 111.285156 L 341.429688 111.285156 L 341.429688 117.472656 L 328.738281 117.472656 L 328.738281 121.539062 L 342.722656 121.539062 Z M 342.804688 127.941406 " fill-opacity="1" fill-rule="nonzero"/><path fill="#0b0326" d="M 364.28125 107.335938 L 356.457031 107.335938 L 356.457031 101.082031 L 379.65625 101.082031 L 379.65625 107.335938 L 371.785156 107.335938 L 371.785156 127.941406 L 364.246094 127.941406 Z M 364.28125 107.335938 " fill-opacity="1" fill-rule="nonzero"/><path fill="#0b0326" d="M 394.46875 101.082031 L 402.027344 101.082031 L 402.027344 127.941406 L 394.46875 127.941406 Z M 394.46875 101.082031 " fill-opacity="1" fill-rule="nonzero"/><path fill="#0b0326" d="M 436.757812 115.78125 C 436.558594 112.546875 436.558594 111.320312 436.523438 110.289062 L 436.523438 101.082031 L 444.148438 101.082031 L 444.148438 127.941406 L 437.71875 127.941406 L 426.515625 113.476562 L 426.632812 119.347656 L 426.632812 127.941406 L 418.976562 127.941406 L 418.976562 101.082031 L 425.40625 101.082031 Z M 436.757812 115.78125 " fill-opacity="1" fill-rule="nonzero"/><g clip-path="url(#8e66ccdb95)"><path fill="#0b0326" d="M 480.417969 109.03125 C 479.582031 108.261719 478.636719 107.675781 477.578125 107.273438 C 476.519531 106.867188 475.421875 106.675781 474.289062 106.691406 C 469.914062 106.691406 467.078125 109.296875 467.078125 114.554688 C 467.078125 118.003906 468.871094 122.269531 474.289062 122.269531 C 476.152344 122.328125 477.875 121.863281 479.457031 120.875 L 479.457031 117.425781 L 472.664062 117.425781 L 472.664062 111.484375 L 485.789062 111.484375 L 485.789062 123.414062 C 484.128906 126.832031 479.425781 128.671875 474.1875 128.671875 C 463.582031 128.671875 459.558594 121.570312 459.558594 114.554688 C 459.558594 107.535156 464.148438 100.320312 474.238281 100.320312 C 475.222656 100.273438 476.199219 100.332031 477.167969 100.496094 C 478.136719 100.664062 479.078125 100.9375 479.988281 101.308594 C 480.898438 101.683594 481.757812 102.152344 482.566406 102.714844 C 483.375 103.28125 484.109375 103.925781 484.777344 104.648438 Z M 480.417969 109.03125 " fill-opacity="1" fill-rule="nonzero"/></g></svg>